<?xml version="1.0" encoding="UTF-8"?>
<svg viewBox="0 0 24 24" xmlns="http://www.w3.org/2000/svg">
<title>eye-plus-outline</title>
<path d="m12 4.5c-5 0-9.27 3.11-11 7.5 1.73 4.39 6 7.5 11 7.5 0.36 0 0.72 0 1.08-0.05-0.05-0.32-0.08-0.63-0.08-0.95 0-0.36 0.04-0.72 0.1-1.08-0.36 0.04-0.73 0.08-1.1 0.08-3.76 0-7.17-2.14-8.82-5.5 1.65-3.36 5.06-5.5 8.82-5.5s7.17 2.14 8.82 5.5c-0.12 0.24-0.26 0.45-0.39 0.68 0.66 0.16 1.29 0.43 1.86 0.82 0.27-0.5 0.51-1 0.71-1.5-1.73-4.39-6-7.5-11-7.5m0 4.5a3 3 0 0 0-3 3 3 3 0 0 0 3 3 3 3 0 0 0 3-3 3 3 0 0 0-3-3m6 5.5v3h-3v2h3v3h2v-3h3v-2h-3v-3h-2z"/>
</svg>
